<mxfile host="app.diagrams.net" modified="2022-11-28T17:18:11.177Z" agent="5.0 (Windows NT 10.0; Win64; x64) AppleWebKit/537.36 (KHTML, like Gecko) Chrome/107.0.0.0 Safari/537.36" etag="UZLEG_m_WnahU62PHCTc" version="20.6.0" type="github">
  <diagram id="jxg-HNQChAcuZw3VS6Dw" name="Page-1">
    <mxGraphModel dx="868" dy="482" grid="1" gridSize="10" guides="1" tooltips="1" connect="1" arrows="1" fold="1" page="1" pageScale="1" pageWidth="850" pageHeight="1100" math="0" shadow="0">
      <root>
        <mxCell id="0" />
        <mxCell id="1" parent="0" />
        <mxCell id="NDdD4gms6zNJALL_X05b-5" value="" style="edgeStyle=orthogonalEdgeStyle;rounded=0;orthogonalLoop=1;jettySize=auto;html=1;" parent="1" source="NDdD4gms6zNJALL_X05b-1" target="NDdD4gms6zNJALL_X05b-4" edge="1">
          <mxGeometry relative="1" as="geometry" />
        </mxCell>
        <mxCell id="NDdD4gms6zNJALL_X05b-1" value="เริ่ม" style="rounded=1;whiteSpace=wrap;html=1;" parent="1" vertex="1">
          <mxGeometry x="80" y="80" width="120" height="60" as="geometry" />
        </mxCell>
        <mxCell id="NDdD4gms6zNJALL_X05b-3" value="ซักผ้า" style="text;html=1;align=center;verticalAlign=middle;resizable=0;points=[];autosize=1;strokeColor=none;fillColor=none;" parent="1" vertex="1">
          <mxGeometry x="115" y="40" width="50" height="30" as="geometry" />
        </mxCell>
        <mxCell id="NDdD4gms6zNJALL_X05b-11" value="" style="edgeStyle=orthogonalEdgeStyle;rounded=0;orthogonalLoop=1;jettySize=auto;html=1;" parent="1" source="NDdD4gms6zNJALL_X05b-4" target="NDdD4gms6zNJALL_X05b-10" edge="1">
          <mxGeometry relative="1" as="geometry" />
        </mxCell>
        <mxCell id="NDdD4gms6zNJALL_X05b-4" value="แยกผ้าในตะกร้า" style="rounded=0;whiteSpace=wrap;html=1;" parent="1" vertex="1">
          <mxGeometry x="80" y="200" width="120" height="60" as="geometry" />
        </mxCell>
        <mxCell id="NDdD4gms6zNJALL_X05b-13" value="" style="edgeStyle=orthogonalEdgeStyle;rounded=0;orthogonalLoop=1;jettySize=auto;html=1;" parent="1" source="NDdD4gms6zNJALL_X05b-10" target="NDdD4gms6zNJALL_X05b-12" edge="1">
          <mxGeometry relative="1" as="geometry" />
        </mxCell>
        <mxCell id="NDdD4gms6zNJALL_X05b-10" value="ผ้าสี / ผ้าขาว" style="whiteSpace=wrap;html=1;rounded=0;" parent="1" vertex="1">
          <mxGeometry x="80" y="340" width="120" height="60" as="geometry" />
        </mxCell>
        <mxCell id="NDdD4gms6zNJALL_X05b-15" value="" style="edgeStyle=orthogonalEdgeStyle;rounded=0;orthogonalLoop=1;jettySize=auto;html=1;" parent="1" source="NDdD4gms6zNJALL_X05b-12" target="NDdD4gms6zNJALL_X05b-14" edge="1">
          <mxGeometry relative="1" as="geometry" />
        </mxCell>
        <mxCell id="NDdD4gms6zNJALL_X05b-12" value="เตรียมผงซักฟอก / น้ำยาปรับผ้านุ่ม" style="whiteSpace=wrap;html=1;rounded=0;" parent="1" vertex="1">
          <mxGeometry x="80" y="480" width="120" height="60" as="geometry" />
        </mxCell>
        <mxCell id="NDdD4gms6zNJALL_X05b-17" value="" style="edgeStyle=orthogonalEdgeStyle;rounded=0;orthogonalLoop=1;jettySize=auto;html=1;" parent="1" source="NDdD4gms6zNJALL_X05b-14" target="NDdD4gms6zNJALL_X05b-16" edge="1">
          <mxGeometry relative="1" as="geometry" />
        </mxCell>
        <mxCell id="NDdD4gms6zNJALL_X05b-14" value="เตรียมเหรียญ 10" style="whiteSpace=wrap;html=1;rounded=0;" parent="1" vertex="1">
          <mxGeometry x="80" y="620" width="120" height="60" as="geometry" />
        </mxCell>
        <mxCell id="NDdD4gms6zNJALL_X05b-19" value="" style="edgeStyle=orthogonalEdgeStyle;rounded=0;orthogonalLoop=1;jettySize=auto;html=1;" parent="1" source="NDdD4gms6zNJALL_X05b-16" target="NDdD4gms6zNJALL_X05b-18" edge="1">
          <mxGeometry relative="1" as="geometry" />
        </mxCell>
        <mxCell id="NDdD4gms6zNJALL_X05b-16" value="นำผ้าไปใส่เครื่องซัก" style="whiteSpace=wrap;html=1;rounded=0;" parent="1" vertex="1">
          <mxGeometry x="80" y="760" width="120" height="60" as="geometry" />
        </mxCell>
        <mxCell id="NDdD4gms6zNJALL_X05b-21" value="" style="edgeStyle=orthogonalEdgeStyle;rounded=0;orthogonalLoop=1;jettySize=auto;html=1;" parent="1" source="NDdD4gms6zNJALL_X05b-18" target="NDdD4gms6zNJALL_X05b-20" edge="1">
          <mxGeometry relative="1" as="geometry" />
        </mxCell>
        <mxCell id="NDdD4gms6zNJALL_X05b-18" value="ใส่ผงซักฟอก / น้ำยาปรับผ้านุ่ม" style="whiteSpace=wrap;html=1;rounded=0;" parent="1" vertex="1">
          <mxGeometry x="80" y="900" width="120" height="60" as="geometry" />
        </mxCell>
        <mxCell id="NDdD4gms6zNJALL_X05b-23" value="" style="edgeStyle=orthogonalEdgeStyle;rounded=0;orthogonalLoop=1;jettySize=auto;html=1;" parent="1" source="NDdD4gms6zNJALL_X05b-20" target="NDdD4gms6zNJALL_X05b-22" edge="1">
          <mxGeometry relative="1" as="geometry" />
        </mxCell>
        <mxCell id="NDdD4gms6zNJALL_X05b-20" value="ปิดฝาเครื่องซัก" style="whiteSpace=wrap;html=1;rounded=0;" parent="1" vertex="1">
          <mxGeometry x="80" y="1040" width="120" height="60" as="geometry" />
        </mxCell>
        <mxCell id="NDdD4gms6zNJALL_X05b-25" value="" style="edgeStyle=orthogonalEdgeStyle;rounded=0;orthogonalLoop=1;jettySize=auto;html=1;" parent="1" source="NDdD4gms6zNJALL_X05b-22" target="NDdD4gms6zNJALL_X05b-24" edge="1">
          <mxGeometry relative="1" as="geometry" />
        </mxCell>
        <mxCell id="NDdD4gms6zNJALL_X05b-22" value="หยอดเหรียญ" style="whiteSpace=wrap;html=1;rounded=0;" parent="1" vertex="1">
          <mxGeometry x="80" y="1180" width="120" height="60" as="geometry" />
        </mxCell>
        <mxCell id="NDdD4gms6zNJALL_X05b-27" value="" style="edgeStyle=orthogonalEdgeStyle;rounded=0;orthogonalLoop=1;jettySize=auto;html=1;" parent="1" source="NDdD4gms6zNJALL_X05b-24" target="NDdD4gms6zNJALL_X05b-26" edge="1">
          <mxGeometry relative="1" as="geometry" />
        </mxCell>
        <mxCell id="NDdD4gms6zNJALL_X05b-24" value="กดปุ่มเริ่มทำงาน" style="whiteSpace=wrap;html=1;rounded=0;" parent="1" vertex="1">
          <mxGeometry x="80" y="1320" width="120" height="60" as="geometry" />
        </mxCell>
        <mxCell id="NDdD4gms6zNJALL_X05b-29" value="" style="edgeStyle=orthogonalEdgeStyle;rounded=0;orthogonalLoop=1;jettySize=auto;html=1;" parent="1" source="NDdD4gms6zNJALL_X05b-26" target="NDdD4gms6zNJALL_X05b-28" edge="1">
          <mxGeometry relative="1" as="geometry" />
        </mxCell>
        <mxCell id="NDdD4gms6zNJALL_X05b-26" value="จับเวลา" style="whiteSpace=wrap;html=1;rounded=0;" parent="1" vertex="1">
          <mxGeometry x="80" y="1460" width="120" height="60" as="geometry" />
        </mxCell>
        <mxCell id="NDdD4gms6zNJALL_X05b-28" value="สิ้นสุด" style="rounded=1;whiteSpace=wrap;html=1;" parent="1" vertex="1">
          <mxGeometry x="80" y="1580" width="120" height="60" as="geometry" />
        </mxCell>
        <mxCell id="NDdD4gms6zNJALL_X05b-30" value="นั่งรถกลับบ้าน" style="text;html=1;align=center;verticalAlign=middle;resizable=0;points=[];autosize=1;strokeColor=none;fillColor=none;" parent="1" vertex="1">
          <mxGeometry x="600" y="35" width="90" height="30" as="geometry" />
        </mxCell>
        <mxCell id="NDdD4gms6zNJALL_X05b-35" value="" style="edgeStyle=orthogonalEdgeStyle;rounded=0;orthogonalLoop=1;jettySize=auto;html=1;" parent="1" source="NDdD4gms6zNJALL_X05b-31" target="NDdD4gms6zNJALL_X05b-34" edge="1">
          <mxGeometry relative="1" as="geometry" />
        </mxCell>
        <mxCell id="NDdD4gms6zNJALL_X05b-31" value="เริ่ม" style="rounded=1;whiteSpace=wrap;html=1;" parent="1" vertex="1">
          <mxGeometry x="590" y="110" width="120" height="60" as="geometry" />
        </mxCell>
        <mxCell id="79EcgizUDdIbm7P84b81-2" value="" style="edgeStyle=orthogonalEdgeStyle;rounded=0;orthogonalLoop=1;jettySize=auto;html=1;" edge="1" parent="1" source="NDdD4gms6zNJALL_X05b-34" target="79EcgizUDdIbm7P84b81-1">
          <mxGeometry relative="1" as="geometry" />
        </mxCell>
        <mxCell id="NDdD4gms6zNJALL_X05b-34" value="เดินไปบขส" style="rounded=0;whiteSpace=wrap;html=1;" parent="1" vertex="1">
          <mxGeometry x="590" y="200" width="120" height="60" as="geometry" />
        </mxCell>
        <mxCell id="NDdD4gms6zNJALL_X05b-72" value="นั่งรถกลับบ้าน" style="text;html=1;align=center;verticalAlign=middle;resizable=0;points=[];autosize=1;strokeColor=none;fillColor=none;" parent="1" vertex="1">
          <mxGeometry x="1370" y="50" width="90" height="30" as="geometry" />
        </mxCell>
        <mxCell id="NDdD4gms6zNJALL_X05b-75" value="" style="edgeStyle=orthogonalEdgeStyle;rounded=0;orthogonalLoop=1;jettySize=auto;html=1;startArrow=none;" parent="1" edge="1">
          <mxGeometry relative="1" as="geometry">
            <mxPoint x="1415" y="179.9999999999999" as="sourcePoint" />
            <mxPoint x="1415" y="199.9999999999999" as="targetPoint" />
          </mxGeometry>
        </mxCell>
        <mxCell id="NDdD4gms6zNJALL_X05b-73" value="เริ่ม" style="rounded=1;whiteSpace=wrap;html=1;" parent="1" vertex="1">
          <mxGeometry x="1355" y="80" width="120" height="60" as="geometry" />
        </mxCell>
        <mxCell id="NDdD4gms6zNJALL_X05b-95" value="" style="edgeStyle=orthogonalEdgeStyle;rounded=0;orthogonalLoop=1;jettySize=auto;html=1;endArrow=none;" parent="1" source="NDdD4gms6zNJALL_X05b-73" edge="1">
          <mxGeometry relative="1" as="geometry">
            <mxPoint x="1415" y="140" as="sourcePoint" />
            <mxPoint x="1415" y="179.9999999999999" as="targetPoint" />
          </mxGeometry>
        </mxCell>
        <mxCell id="79EcgizUDdIbm7P84b81-4" value="" style="edgeStyle=orthogonalEdgeStyle;rounded=0;orthogonalLoop=1;jettySize=auto;html=1;" edge="1" parent="1" source="79EcgizUDdIbm7P84b81-1" target="79EcgizUDdIbm7P84b81-3">
          <mxGeometry relative="1" as="geometry">
            <Array as="points">
              <mxPoint x="900" y="405" />
            </Array>
          </mxGeometry>
        </mxCell>
        <mxCell id="79EcgizUDdIbm7P84b81-5" value="ใช่" style="edgeLabel;html=1;align=center;verticalAlign=middle;resizable=0;points=[];" vertex="1" connectable="0" parent="79EcgizUDdIbm7P84b81-4">
          <mxGeometry x="-0.3524" y="-1" relative="1" as="geometry">
            <mxPoint as="offset" />
          </mxGeometry>
        </mxCell>
        <mxCell id="79EcgizUDdIbm7P84b81-7" value="" style="edgeStyle=orthogonalEdgeStyle;rounded=0;orthogonalLoop=1;jettySize=auto;html=1;" edge="1" parent="1" source="79EcgizUDdIbm7P84b81-1" target="79EcgizUDdIbm7P84b81-6">
          <mxGeometry relative="1" as="geometry">
            <Array as="points">
              <mxPoint x="430" y="405" />
            </Array>
          </mxGeometry>
        </mxCell>
        <mxCell id="79EcgizUDdIbm7P84b81-8" value="ไม่ใช่" style="edgeLabel;html=1;align=center;verticalAlign=middle;resizable=0;points=[];" vertex="1" connectable="0" parent="79EcgizUDdIbm7P84b81-7">
          <mxGeometry x="-0.3882" y="2" relative="1" as="geometry">
            <mxPoint as="offset" />
          </mxGeometry>
        </mxCell>
        <mxCell id="79EcgizUDdIbm7P84b81-26" value="" style="edgeStyle=orthogonalEdgeStyle;rounded=0;orthogonalLoop=1;jettySize=auto;html=1;" edge="1" parent="1" target="79EcgizUDdIbm7P84b81-18">
          <mxGeometry relative="1" as="geometry">
            <mxPoint x="660" y="540" as="sourcePoint" />
          </mxGeometry>
        </mxCell>
        <mxCell id="79EcgizUDdIbm7P84b81-1" value="ถ้าไปช้า คนเยอะ รถเต็ม" style="rhombus;whiteSpace=wrap;html=1;rounded=0;" vertex="1" parent="1">
          <mxGeometry x="585" y="300" width="130" height="130" as="geometry" />
        </mxCell>
        <mxCell id="79EcgizUDdIbm7P84b81-17" style="edgeStyle=orthogonalEdgeStyle;rounded=0;orthogonalLoop=1;jettySize=auto;html=1;" edge="1" parent="1" source="79EcgizUDdIbm7P84b81-3">
          <mxGeometry relative="1" as="geometry">
            <mxPoint x="660" y="540" as="targetPoint" />
            <Array as="points">
              <mxPoint x="900" y="540" />
              <mxPoint x="670" y="540" />
            </Array>
          </mxGeometry>
        </mxCell>
        <mxCell id="79EcgizUDdIbm7P84b81-3" value="พ่อมารับ" style="whiteSpace=wrap;html=1;rounded=0;" vertex="1" parent="1">
          <mxGeometry x="810" y="430" width="120" height="60" as="geometry" />
        </mxCell>
        <mxCell id="79EcgizUDdIbm7P84b81-15" style="edgeStyle=orthogonalEdgeStyle;rounded=0;orthogonalLoop=1;jettySize=auto;html=1;" edge="1" parent="1" source="79EcgizUDdIbm7P84b81-6">
          <mxGeometry relative="1" as="geometry">
            <mxPoint x="660" y="540" as="targetPoint" />
            <Array as="points">
              <mxPoint x="425" y="540" />
              <mxPoint x="620" y="540" />
            </Array>
          </mxGeometry>
        </mxCell>
        <mxCell id="79EcgizUDdIbm7P84b81-6" value="นั่งรถตู้" style="whiteSpace=wrap;html=1;rounded=0;" vertex="1" parent="1">
          <mxGeometry x="390" y="430" width="120" height="60" as="geometry" />
        </mxCell>
        <mxCell id="79EcgizUDdIbm7P84b81-21" value="" style="edgeStyle=orthogonalEdgeStyle;rounded=0;orthogonalLoop=1;jettySize=auto;html=1;" edge="1" parent="1" source="79EcgizUDdIbm7P84b81-18" target="79EcgizUDdIbm7P84b81-20">
          <mxGeometry relative="1" as="geometry" />
        </mxCell>
        <mxCell id="79EcgizUDdIbm7P84b81-18" value="นั่งรถ" style="whiteSpace=wrap;html=1;" vertex="1" parent="1">
          <mxGeometry x="600" y="570" width="120" height="60" as="geometry" />
        </mxCell>
        <mxCell id="79EcgizUDdIbm7P84b81-24" value="" style="edgeStyle=orthogonalEdgeStyle;rounded=0;orthogonalLoop=1;jettySize=auto;html=1;" edge="1" parent="1" source="79EcgizUDdIbm7P84b81-20">
          <mxGeometry relative="1" as="geometry">
            <mxPoint x="660" y="790" as="targetPoint" />
          </mxGeometry>
        </mxCell>
        <mxCell id="79EcgizUDdIbm7P84b81-20" value="ลงรถ" style="whiteSpace=wrap;html=1;" vertex="1" parent="1">
          <mxGeometry x="600" y="690" width="120" height="60" as="geometry" />
        </mxCell>
        <mxCell id="79EcgizUDdIbm7P84b81-28" value="" style="edgeStyle=orthogonalEdgeStyle;rounded=0;orthogonalLoop=1;jettySize=auto;html=1;exitX=0.5;exitY=1;exitDx=0;exitDy=0;" edge="1" parent="1" source="79EcgizUDdIbm7P84b81-29" target="79EcgizUDdIbm7P84b81-27">
          <mxGeometry relative="1" as="geometry">
            <mxPoint x="660" y="860" as="sourcePoint" />
          </mxGeometry>
        </mxCell>
        <mxCell id="79EcgizUDdIbm7P84b81-27" value="สิ้นสุด" style="rounded=1;whiteSpace=wrap;html=1;" vertex="1" parent="1">
          <mxGeometry x="600" y="890" width="120" height="60" as="geometry" />
        </mxCell>
        <mxCell id="79EcgizUDdIbm7P84b81-29" value="ถึงบ้าน" style="rounded=0;whiteSpace=wrap;html=1;" vertex="1" parent="1">
          <mxGeometry x="600" y="790" width="120" height="60" as="geometry" />
        </mxCell>
        <mxCell id="79EcgizUDdIbm7P84b81-36" value="" style="edgeStyle=orthogonalEdgeStyle;rounded=0;orthogonalLoop=1;jettySize=auto;html=1;" edge="1" parent="1" source="79EcgizUDdIbm7P84b81-34" target="79EcgizUDdIbm7P84b81-35">
          <mxGeometry relative="1" as="geometry" />
        </mxCell>
        <mxCell id="79EcgizUDdIbm7P84b81-34" value="เดินไปบขส" style="rounded=0;whiteSpace=wrap;html=1;" vertex="1" parent="1">
          <mxGeometry x="1355" y="200" width="120" height="60" as="geometry" />
        </mxCell>
        <mxCell id="79EcgizUDdIbm7P84b81-38" value="" style="edgeStyle=orthogonalEdgeStyle;rounded=0;orthogonalLoop=1;jettySize=auto;html=1;" edge="1" parent="1" source="79EcgizUDdIbm7P84b81-35" target="79EcgizUDdIbm7P84b81-37">
          <mxGeometry relative="1" as="geometry" />
        </mxCell>
        <mxCell id="79EcgizUDdIbm7P84b81-35" value="หารถ" style="whiteSpace=wrap;html=1;rounded=0;" vertex="1" parent="1">
          <mxGeometry x="1355" y="320" width="120" height="60" as="geometry" />
        </mxCell>
        <mxCell id="79EcgizUDdIbm7P84b81-40" style="edgeStyle=orthogonalEdgeStyle;rounded=0;orthogonalLoop=1;jettySize=auto;html=1;" edge="1" parent="1" source="79EcgizUDdIbm7P84b81-37">
          <mxGeometry relative="1" as="geometry">
            <mxPoint x="1420" y="280" as="targetPoint" />
            <Array as="points">
              <mxPoint x="1540" y="490" />
              <mxPoint x="1540" y="280" />
            </Array>
          </mxGeometry>
        </mxCell>
        <mxCell id="79EcgizUDdIbm7P84b81-44" value="เต็ม" style="edgeLabel;html=1;align=center;verticalAlign=middle;resizable=0;points=[];" vertex="1" connectable="0" parent="79EcgizUDdIbm7P84b81-40">
          <mxGeometry x="-0.7605" y="-1" relative="1" as="geometry">
            <mxPoint as="offset" />
          </mxGeometry>
        </mxCell>
        <mxCell id="79EcgizUDdIbm7P84b81-42" value="" style="edgeStyle=orthogonalEdgeStyle;rounded=0;orthogonalLoop=1;jettySize=auto;html=1;" edge="1" parent="1" source="79EcgizUDdIbm7P84b81-37" target="79EcgizUDdIbm7P84b81-41">
          <mxGeometry relative="1" as="geometry" />
        </mxCell>
        <mxCell id="79EcgizUDdIbm7P84b81-46" value="ไม่" style="edgeLabel;html=1;align=center;verticalAlign=middle;resizable=0;points=[];" vertex="1" connectable="0" parent="79EcgizUDdIbm7P84b81-42">
          <mxGeometry x="0.2223" y="1" relative="1" as="geometry">
            <mxPoint as="offset" />
          </mxGeometry>
        </mxCell>
        <mxCell id="79EcgizUDdIbm7P84b81-37" value="รถเต็มไหม" style="rhombus;whiteSpace=wrap;html=1;rounded=0;" vertex="1" parent="1">
          <mxGeometry x="1346.25" y="430" width="137.5" height="120" as="geometry" />
        </mxCell>
        <mxCell id="79EcgizUDdIbm7P84b81-48" value="" style="edgeStyle=orthogonalEdgeStyle;rounded=0;orthogonalLoop=1;jettySize=auto;html=1;" edge="1" parent="1" source="79EcgizUDdIbm7P84b81-41" target="79EcgizUDdIbm7P84b81-47">
          <mxGeometry relative="1" as="geometry" />
        </mxCell>
        <mxCell id="79EcgizUDdIbm7P84b81-41" value="จ่ายเงิน" style="whiteSpace=wrap;html=1;rounded=0;" vertex="1" parent="1">
          <mxGeometry x="1355" y="610" width="120" height="60" as="geometry" />
        </mxCell>
        <mxCell id="79EcgizUDdIbm7P84b81-50" value="" style="edgeStyle=orthogonalEdgeStyle;rounded=0;orthogonalLoop=1;jettySize=auto;html=1;" edge="1" parent="1" source="79EcgizUDdIbm7P84b81-47" target="79EcgizUDdIbm7P84b81-49">
          <mxGeometry relative="1" as="geometry" />
        </mxCell>
        <mxCell id="79EcgizUDdIbm7P84b81-47" value="ขึ้นรถ" style="whiteSpace=wrap;html=1;rounded=0;" vertex="1" parent="1">
          <mxGeometry x="1355" y="720" width="120" height="60" as="geometry" />
        </mxCell>
        <mxCell id="79EcgizUDdIbm7P84b81-55" value="" style="edgeStyle=orthogonalEdgeStyle;rounded=0;orthogonalLoop=1;jettySize=auto;html=1;" edge="1" parent="1" source="79EcgizUDdIbm7P84b81-49" target="79EcgizUDdIbm7P84b81-54">
          <mxGeometry relative="1" as="geometry" />
        </mxCell>
        <mxCell id="79EcgizUDdIbm7P84b81-49" value="นั่งรถ" style="whiteSpace=wrap;html=1;rounded=0;" vertex="1" parent="1">
          <mxGeometry x="1355" y="830" width="120" height="60" as="geometry" />
        </mxCell>
        <mxCell id="79EcgizUDdIbm7P84b81-57" value="" style="edgeStyle=orthogonalEdgeStyle;rounded=0;orthogonalLoop=1;jettySize=auto;html=1;" edge="1" parent="1" source="79EcgizUDdIbm7P84b81-54" target="79EcgizUDdIbm7P84b81-56">
          <mxGeometry relative="1" as="geometry" />
        </mxCell>
        <mxCell id="79EcgizUDdIbm7P84b81-54" value="ถึงบ้าน" style="whiteSpace=wrap;html=1;rounded=0;" vertex="1" parent="1">
          <mxGeometry x="1355" y="940" width="120" height="60" as="geometry" />
        </mxCell>
        <mxCell id="79EcgizUDdIbm7P84b81-56" value="สิ้นสุด" style="rounded=1;whiteSpace=wrap;html=1;" vertex="1" parent="1">
          <mxGeometry x="1355" y="1040" width="120" height="60" as="geometry" />
        </mxCell>
      </root>
    </mxGraphModel>
  </diagram>
</mxfile>
